<svg
	xmlns="http://www.w3.org/2000/svg"
	viewBox="0 0 998 446"
	class="w-full h-auto"
>
	<path
		d="M470.976 423.732V22.2683H462.057V423.732H470.976Z"
		fill="white"
		class="fill-inherit"
	/>
	<path
		d="M502.445 39.8964H523.329C532.264 39.8964 539.026 41.151 543.616 43.6601C548.206 46.1692 550.501 50.5755 550.501 56.8788C550.501 59.4186 550.088 61.7135 549.262 63.7636C548.466 65.8137 547.303 67.4967 545.773 68.8124C544.243 70.1282 542.377 70.985 540.174 71.3828V71.8417C542.408 72.3007 544.427 73.0963 546.232 74.2285C548.038 75.33 549.476 76.9518 550.547 79.0937C551.648 81.205 552.199 84.0201 552.199 87.539C552.199 91.6087 551.205 95.0969 549.216 98.0038C547.227 100.911 544.381 103.144 540.679 104.705C537.007 106.235 532.631 107 527.552 107H502.445V39.8964ZM516.674 66.4716H524.936C529.066 66.4716 531.927 65.829 533.519 64.5439C535.11 63.2281 535.905 61.3004 535.905 58.7607C535.905 56.1904 534.957 54.3544 533.06 53.2529C531.193 52.1207 528.225 51.5546 524.155 51.5546H516.674V66.4716ZM516.674 77.7626V95.2499H525.945C530.229 95.2499 533.213 94.4238 534.896 92.7714C536.578 91.1191 537.42 88.9007 537.42 86.1161C537.42 84.4638 537.053 83.0104 536.318 81.7558C535.584 80.5012 534.345 79.5221 532.601 78.8183C530.887 78.1145 528.516 77.7626 525.486 77.7626H516.674Z"
		fill="white"
		class="fill-inherit"
	/>
	<path
		d="M593.141 54.7216C593.844 54.7216 594.655 54.7675 595.573 54.8593C596.522 54.9205 597.287 55.0123 597.868 55.1347L596.812 68.2617C596.354 68.1087 595.696 68.0016 594.839 67.9404C594.013 67.8486 593.294 67.8027 592.682 67.8027C590.876 67.8027 589.117 68.0322 587.403 68.4911C585.72 68.9501 584.206 69.6998 582.859 70.7402C581.513 71.7499 580.442 73.0963 579.646 74.7792C578.882 76.4316 578.499 78.4664 578.499 80.8837V107H564.5V55.6855H575.103L577.168 64.3144H577.856C578.866 62.5703 580.121 60.9791 581.62 59.541C583.15 58.0722 584.879 56.9094 586.807 56.0527C588.765 55.1653 590.876 54.7216 593.141 54.7216Z"
		fill="white"
		class="fill-inherit"
	/>
	<path
		d="M628.207 54.6298C635.092 54.6298 640.37 56.1292 644.042 59.1279C647.714 62.1266 649.55 66.6858 649.55 72.8056V107H639.773L637.065 100.023H636.698C635.229 101.859 633.73 103.359 632.2 104.521C630.67 105.684 628.911 106.541 626.922 107.092C624.933 107.643 622.516 107.918 619.67 107.918C616.641 107.918 613.917 107.337 611.5 106.174C609.113 105.011 607.231 103.236 605.854 100.85C604.478 98.4322 603.789 95.3723 603.789 91.6699C603.789 86.2232 605.701 82.2148 609.526 79.6445C613.351 77.0436 619.089 75.6054 626.738 75.33L635.643 75.0546V72.8056C635.643 70.1129 634.939 68.1393 633.531 66.8847C632.124 65.6301 630.165 65.0029 627.656 65.0029C625.178 65.0029 622.745 65.3548 620.358 66.0585C617.972 66.7623 615.585 67.6497 613.198 68.7206L608.562 59.2656C611.286 57.8274 614.33 56.6953 617.696 55.8691C621.093 55.0429 624.596 54.6298 628.207 54.6298ZM635.643 83.2245L630.227 83.4081C625.698 83.5305 622.546 84.3414 620.771 85.8408C619.027 87.3401 618.155 89.3137 618.155 91.7617C618.155 93.9036 618.783 95.4335 620.037 96.3515C621.292 97.2389 622.929 97.6826 624.948 97.6826C627.947 97.6826 630.471 96.7952 632.521 95.0204C634.602 93.2457 635.643 90.7213 635.643 87.4472V83.2245Z"
		fill="white"
		class="fill-inherit"
	/>
	<path
		d="M699.717 107H659.188V98.7382L682.964 66.3798H660.611V55.6855H698.891V64.7734L675.758 96.3056H699.717V107Z"
		fill="white"
		class="fill-inherit"
	/>
	<path
		d="M756.539 81.2509C756.539 85.5348 755.958 89.329 754.795 92.6337C753.663 95.9384 751.995 98.7382 749.792 101.033C747.619 103.297 744.988 105.011 741.897 106.174C738.838 107.337 735.38 107.918 731.524 107.918C727.914 107.918 724.594 107.337 721.564 106.174C718.566 105.011 715.95 103.297 713.716 101.033C711.513 98.7382 709.799 95.9384 708.575 92.6337C707.382 89.329 706.785 85.5348 706.785 81.2509C706.785 75.5595 707.795 70.7402 709.814 66.7929C711.834 62.8456 714.71 59.8469 718.443 57.7968C722.176 55.7467 726.629 54.7216 731.8 54.7216C736.604 54.7216 740.857 55.7467 744.56 57.7968C748.293 59.8469 751.215 62.8456 753.326 66.7929C755.468 70.7402 756.539 75.5595 756.539 81.2509ZM721.06 81.2509C721.06 84.6168 721.427 87.4472 722.161 89.7421C722.896 92.037 724.043 93.7659 725.604 94.9286C727.164 96.0914 729.199 96.6728 731.708 96.6728C734.187 96.6728 736.191 96.0914 737.721 94.9286C739.281 93.7659 740.413 92.037 741.117 89.7421C741.852 87.4472 742.219 84.6168 742.219 81.2509C742.219 77.8544 741.852 75.0393 741.117 72.8056C740.413 70.5413 739.281 68.843 737.721 67.7109C736.16 66.5787 734.125 66.0126 731.616 66.0126C727.914 66.0126 725.221 67.2825 723.538 69.8222C721.886 72.3619 721.06 76.1715 721.06 81.2509Z"
		fill="white"
		class="fill-inherit"
	/>
	<path
		d="M803.906 91.7617C803.906 95.2499 803.08 98.2027 801.428 100.62C799.806 103.007 797.373 104.827 794.13 106.082C790.886 107.306 786.847 107.918 782.013 107.918C778.433 107.918 775.357 107.688 772.787 107.229C770.247 106.77 767.677 106.005 765.076 104.935V93.3681C767.861 94.6227 770.844 95.663 774.026 96.4892C777.239 97.2848 780.054 97.6826 782.472 97.6826C785.195 97.6826 787.138 97.2848 788.301 96.4892C789.494 95.663 790.091 94.5921 790.091 93.2763C790.091 92.4195 789.846 91.6546 789.356 90.9814C788.897 90.2776 787.888 89.4973 786.327 88.6406C784.767 87.7532 782.319 86.6057 778.983 85.1982C775.771 83.8518 773.124 82.4902 771.043 81.1132C768.993 79.7363 767.463 78.1145 766.453 76.248C765.474 74.3508 764.984 71.9488 764.984 69.0419C764.984 64.2991 766.82 60.7343 770.492 58.3476C774.195 55.9303 779.136 54.7216 785.317 54.7216C788.5 54.7216 791.529 55.0429 794.405 55.6855C797.312 56.3281 800.296 57.3531 803.355 58.7607L799.133 68.8583C796.593 67.7568 794.191 66.8541 791.927 66.1503C789.693 65.4466 787.413 65.0947 785.088 65.0947C783.038 65.0947 781.493 65.3701 780.452 65.9208C779.412 66.4716 778.892 67.3131 778.892 68.4453C778.892 69.2714 779.152 70.0058 779.672 70.6484C780.223 71.291 781.263 72.01 782.793 72.8056C784.354 73.5706 786.633 74.565 789.632 75.789C792.539 76.9824 795.063 78.2369 797.205 79.5527C799.347 80.8378 800.999 82.4443 802.162 84.372C803.325 86.2691 803.906 88.7324 803.906 91.7617Z"
		fill="white"
		class="fill-inherit"
	/>
	<path
		d="M555.091 139.896L532.279 207H516.766L494 139.896H508.366L520.988 179.828C521.202 180.501 521.554 181.771 522.044 183.638C522.534 185.474 523.023 187.432 523.513 189.513C524.033 191.563 524.385 193.261 524.568 194.607C524.752 193.261 525.073 191.563 525.532 189.513C526.022 187.463 526.496 185.519 526.955 183.684C527.445 181.817 527.797 180.532 528.011 179.828L540.725 139.896H555.091Z"
		fill="white"
		class="fill-inherit"
	/>
	<path
		d="M583.502 154.63C590.387 154.63 595.665 156.129 599.337 159.128C603.009 162.127 604.845 166.686 604.845 172.806V207H595.068L592.36 200.023H591.993C590.524 201.859 589.025 203.359 587.495 204.521C585.965 205.684 584.206 206.541 582.217 207.092C580.228 207.643 577.811 207.918 574.965 207.918C571.936 207.918 569.212 207.337 566.795 206.174C564.408 205.011 562.526 203.236 561.149 200.85C559.772 198.432 559.084 195.372 559.084 191.67C559.084 186.223 560.996 182.215 564.821 179.644C568.646 177.044 574.383 175.605 582.033 175.33L590.938 175.055V172.806C590.938 170.113 590.234 168.139 588.826 166.885C587.419 165.63 585.46 165.003 582.951 165.003C580.473 165.003 578.04 165.355 575.653 166.059C573.267 166.762 570.88 167.65 568.493 168.721L563.857 159.266C566.581 157.827 569.625 156.695 572.991 155.869C576.388 155.043 579.891 154.63 583.502 154.63ZM590.938 183.225L585.521 183.408C580.993 183.531 577.841 184.341 576.066 185.841C574.322 187.34 573.45 189.314 573.45 191.762C573.45 193.904 574.077 195.434 575.332 196.352C576.587 197.239 578.224 197.683 580.243 197.683C583.242 197.683 585.766 196.795 587.816 195.02C589.897 193.246 590.938 190.721 590.938 187.447V183.225Z"
		fill="white"
		class="fill-inherit"
	/>
	<path
		d="M633.302 207H619.303V135.582H633.302V207Z"
		fill="white"
		class="fill-inherit"
	/>
	<path
		d="M662.034 207H648.035V135.582H662.034V207Z"
		fill="white"
		class="fill-inherit"
	/>
	<path
		d="M697.927 154.722C702.67 154.722 706.755 155.64 710.182 157.476C713.609 159.281 716.256 161.912 718.122 165.37C719.989 168.828 720.922 173.05 720.922 178.038V184.831H687.829C687.982 188.778 689.16 191.884 691.363 194.148C693.597 196.382 696.688 197.499 700.635 197.499C703.909 197.499 706.908 197.162 709.631 196.489C712.354 195.816 715.154 194.806 718.03 193.46V204.292C715.491 205.546 712.828 206.464 710.044 207.046C707.29 207.627 703.939 207.918 699.992 207.918C694.852 207.918 690.292 206.969 686.314 205.072C682.367 203.175 679.261 200.283 676.997 196.397C674.763 192.511 673.646 187.615 673.646 181.71C673.646 175.713 674.656 170.725 676.676 166.747C678.726 162.739 681.572 159.74 685.213 157.751C688.854 155.731 693.092 154.722 697.927 154.722ZM698.019 164.682C695.295 164.682 693.031 165.554 691.226 167.298C689.451 169.042 688.426 171.781 688.15 175.514H707.795C707.764 173.433 707.382 171.582 706.647 169.96C705.944 168.338 704.873 167.053 703.435 166.104C702.027 165.156 700.222 164.682 698.019 164.682Z"
		fill="white"
		class="fill-inherit"
	/>
	<path
		d="M724.961 155.685H740.291L749.976 184.556C750.282 185.474 750.542 186.407 750.756 187.355C750.97 188.304 751.154 189.283 751.307 190.293C751.46 191.303 751.582 192.358 751.674 193.46H751.949C752.133 191.808 752.378 190.262 752.684 188.824C753.02 187.386 753.433 185.963 753.923 184.556L763.424 155.685H778.433L756.723 213.563C755.407 217.113 753.693 220.066 751.582 222.422C749.471 224.809 747.038 226.599 744.284 227.792C741.561 228.985 738.562 229.582 735.288 229.582C733.697 229.582 732.32 229.49 731.157 229.307C729.994 229.154 729 228.985 728.174 228.802V217.694C728.816 217.847 729.627 217.985 730.606 218.107C731.586 218.23 732.611 218.291 733.682 218.291C735.64 218.291 737.323 217.878 738.73 217.052C740.138 216.226 741.316 215.109 742.265 213.701C743.213 212.324 743.963 210.81 744.514 209.157L745.34 206.633L724.961 155.685Z"
		fill="white"
		class="fill-inherit"
	/>
	<path
		d="M584.879 239.896L567.805 307H551.603L542.515 271.75C542.331 271.077 542.086 270.052 541.78 268.675C541.474 267.298 541.153 265.798 540.816 264.177C540.48 262.524 540.174 260.979 539.898 259.541C539.654 258.072 539.485 256.909 539.394 256.053C539.302 256.909 539.118 258.057 538.843 259.495C538.598 260.933 538.307 262.463 537.971 264.085C537.665 265.707 537.359 267.221 537.053 268.629C536.747 270.036 536.502 271.107 536.318 271.842L527.276 307H511.12L494 239.896H507.999L516.582 276.523C516.827 277.625 517.102 278.941 517.408 280.471C517.745 282.001 518.066 283.607 518.372 285.29C518.709 286.942 518.999 288.549 519.244 290.109C519.52 291.639 519.718 292.97 519.841 294.102C519.994 292.94 520.193 291.593 520.438 290.063C520.682 288.503 520.942 286.927 521.218 285.336C521.524 283.714 521.83 282.215 522.136 280.838C522.442 279.461 522.717 278.344 522.962 277.487L532.738 239.896H546.187L555.963 277.487C556.177 278.313 556.422 279.43 556.697 280.838C557.003 282.215 557.309 283.714 557.615 285.336C557.921 286.958 558.197 288.549 558.441 290.109C558.717 291.639 558.916 292.97 559.038 294.102C559.252 292.573 559.543 290.721 559.91 288.549C560.308 286.346 560.721 284.158 561.149 281.985C561.608 279.813 562.006 277.992 562.343 276.523L570.88 239.896H584.879Z"
		fill="white"
		class="fill-inherit"
	/>
	<path
		d="M613.244 254.63C620.129 254.63 625.407 256.129 629.079 259.128C632.751 262.127 634.587 266.686 634.587 272.806V307H624.811L622.103 300.023H621.735C620.267 301.859 618.767 303.359 617.237 304.521C615.707 305.684 613.948 306.541 611.959 307.092C609.97 307.643 607.553 307.918 604.707 307.918C601.678 307.918 598.954 307.337 596.537 306.174C594.15 305.011 592.269 303.236 590.892 300.85C589.515 298.432 588.826 295.372 588.826 291.67C588.826 286.223 590.739 282.215 594.563 279.644C598.388 277.044 604.126 275.605 611.775 275.33L620.68 275.055V272.806C620.68 270.113 619.976 268.139 618.568 266.885C617.161 265.63 615.202 265.003 612.693 265.003C610.215 265.003 607.782 265.355 605.396 266.059C603.009 266.762 600.622 267.65 598.235 268.721L593.6 259.266C596.323 257.827 599.368 256.695 602.733 255.869C606.13 255.043 609.633 254.63 613.244 254.63ZM620.68 283.225L615.264 283.408C610.735 283.531 607.583 284.341 605.809 285.841C604.064 287.34 603.192 289.314 603.192 291.762C603.192 293.904 603.82 295.434 605.074 296.352C606.329 297.239 607.966 297.683 609.985 297.683C612.984 297.683 615.508 296.795 617.559 295.02C619.639 293.246 620.68 290.721 620.68 287.447V283.225Z"
		fill="white"
		class="fill-inherit"
	/>
	<path
		d="M670.663 296.765C672.193 296.765 673.677 296.612 675.115 296.306C676.584 296 678.037 295.617 679.476 295.158V305.577C677.976 306.25 676.11 306.801 673.876 307.229C671.673 307.688 669.256 307.918 666.624 307.918C663.564 307.918 660.81 307.428 658.362 306.449C655.945 305.439 654.033 303.711 652.625 301.263C651.248 298.784 650.56 295.342 650.56 290.935V266.196H643.858V260.275L651.569 255.594L655.608 244.762H664.559V255.685H678.925V266.196H664.559V290.935C664.559 292.894 665.109 294.363 666.211 295.342C667.343 296.29 668.827 296.765 670.663 296.765Z"
		fill="white"
		class="fill-inherit"
	/>
	<path
		d="M711.054 254.722C715.797 254.722 719.882 255.64 723.309 257.476C726.736 259.281 729.382 261.912 731.249 265.37C733.116 268.828 734.049 273.05 734.049 278.038V284.831H700.956C701.109 288.778 702.287 291.884 704.49 294.148C706.724 296.382 709.814 297.499 713.762 297.499C717.036 297.499 720.035 297.162 722.758 296.489C725.481 295.816 728.281 294.806 731.157 293.46V304.292C728.618 305.546 725.955 306.464 723.171 307.046C720.417 307.627 717.066 307.918 713.119 307.918C707.979 307.918 703.419 306.969 699.441 305.072C695.494 303.175 692.388 300.283 690.124 296.397C687.89 292.511 686.773 287.615 686.773 281.71C686.773 275.713 687.783 270.725 689.803 266.747C691.853 262.739 694.699 259.74 698.34 257.751C701.981 255.731 706.219 254.722 711.054 254.722ZM711.146 264.682C708.422 264.682 706.158 265.554 704.353 267.298C702.578 269.042 701.553 271.781 701.277 275.514H720.922C720.891 273.433 720.509 271.582 719.774 269.96C719.071 268.338 718 267.053 716.562 266.104C715.154 265.156 713.349 264.682 711.146 264.682Z"
		fill="white"
		class="fill-inherit"
	/>
	<path
		d="M774.072 254.722C774.776 254.722 775.587 254.768 776.505 254.859C777.453 254.921 778.218 255.012 778.8 255.135L777.744 268.262C777.285 268.109 776.627 268.002 775.771 267.94C774.944 267.849 774.225 267.803 773.613 267.803C771.808 267.803 770.048 268.032 768.335 268.491C766.652 268.95 765.137 269.7 763.791 270.74C762.445 271.75 761.374 273.096 760.578 274.779C759.813 276.432 759.431 278.466 759.431 280.884V307H745.432V255.685H756.034L758.1 264.314H758.788C759.798 262.57 761.052 260.979 762.552 259.541C764.082 258.072 765.811 256.909 767.738 256.053C769.697 255.165 771.808 254.722 774.072 254.722Z"
		fill="white"
		class="fill-inherit"
	/>
	<path
		d="M523.88 339.896C532.539 339.896 538.858 341.763 542.836 345.496C546.814 349.199 548.803 354.309 548.803 360.826C548.803 363.764 548.359 366.579 547.472 369.271C546.584 371.934 545.131 374.305 543.111 376.386C541.122 378.466 538.46 380.119 535.125 381.343C531.79 382.536 527.674 383.133 522.778 383.133H516.674V407H502.445V339.896H523.88ZM523.146 351.555H516.674V371.475H521.355C524.018 371.475 526.328 371.123 528.286 370.419C530.244 369.715 531.759 368.614 532.83 367.114C533.901 365.615 534.437 363.687 534.437 361.331C534.437 358.026 533.519 355.578 531.683 353.987C529.847 352.366 527.001 351.555 523.146 351.555Z"
		fill="white"
		class="fill-inherit"
	/>
	<path
		d="M589.01 354.722C589.714 354.722 590.524 354.768 591.442 354.859C592.391 354.921 593.156 355.012 593.737 355.135L592.682 368.262C592.223 368.109 591.565 368.002 590.708 367.94C589.882 367.849 589.163 367.803 588.551 367.803C586.745 367.803 584.986 368.032 583.272 368.491C581.59 368.95 580.075 369.7 578.729 370.74C577.382 371.75 576.311 373.096 575.516 374.779C574.751 376.432 574.368 378.466 574.368 380.884V407H560.369V355.685H570.972L573.037 364.314H573.726C574.735 362.57 575.99 360.979 577.489 359.541C579.019 358.072 580.748 356.909 582.676 356.053C584.634 355.165 586.745 354.722 589.01 354.722Z"
		fill="white"
		class="fill-inherit"
	/>
	<path
		d="M649.688 381.251C649.688 385.535 649.106 389.329 647.943 392.634C646.811 395.938 645.144 398.738 642.94 401.033C640.768 403.297 638.136 405.011 635.046 406.174C631.986 407.337 628.528 407.918 624.673 407.918C621.062 407.918 617.742 407.337 614.713 406.174C611.714 405.011 609.098 403.297 606.864 401.033C604.661 398.738 602.948 395.938 601.724 392.634C600.53 389.329 599.934 385.535 599.934 381.251C599.934 375.56 600.943 370.74 602.963 366.793C604.982 362.846 607.859 359.847 611.592 357.797C615.325 355.747 619.777 354.722 624.948 354.722C629.752 354.722 634.006 355.747 637.708 357.797C641.441 359.847 644.363 362.846 646.475 366.793C648.617 370.74 649.688 375.56 649.688 381.251ZM614.208 381.251C614.208 384.617 614.575 387.447 615.31 389.742C616.044 392.037 617.191 393.766 618.752 394.929C620.312 396.091 622.347 396.673 624.856 396.673C627.335 396.673 629.339 396.091 630.869 394.929C632.43 393.766 633.562 392.037 634.266 389.742C635 387.447 635.367 384.617 635.367 381.251C635.367 377.854 635 375.039 634.266 372.806C633.562 370.541 632.43 368.843 630.869 367.711C629.309 366.579 627.274 366.013 624.765 366.013C621.062 366.013 618.369 367.283 616.687 369.822C615.034 372.362 614.208 376.171 614.208 381.251Z"
		fill="white"
		class="fill-inherit"
	/>
	<path
		d="M682.872 396.765C684.402 396.765 685.886 396.612 687.324 396.306C688.793 396 690.246 395.617 691.685 395.158V405.577C690.185 406.25 688.319 406.801 686.085 407.229C683.882 407.688 681.465 407.918 678.833 407.918C675.773 407.918 673.019 407.428 670.571 406.449C668.154 405.439 666.242 403.711 664.834 401.263C663.457 398.784 662.769 395.342 662.769 390.935V366.196H656.067V360.275L663.778 355.594L667.817 344.762H676.768V355.685H691.134V366.196H676.768V390.935C676.768 392.894 677.318 394.363 678.42 395.342C679.552 396.29 681.036 396.765 682.872 396.765Z"
		fill="white"
		class="fill-inherit"
	/>
	<path
		d="M723.263 354.722C728.006 354.722 732.09 355.64 735.518 357.476C738.945 359.281 741.591 361.912 743.458 365.37C745.325 368.828 746.258 373.05 746.258 378.038V384.831H713.165C713.318 388.778 714.496 391.884 716.699 394.148C718.933 396.382 722.023 397.499 725.971 397.499C729.245 397.499 732.243 397.162 734.967 396.489C737.69 395.816 740.49 394.806 743.366 393.46V404.292C740.826 405.546 738.164 406.464 735.38 407.046C732.626 407.627 729.275 407.918 725.328 407.918C720.188 407.918 715.628 406.969 711.65 405.072C707.703 403.175 704.597 400.283 702.333 396.397C700.099 392.511 698.982 387.616 698.982 381.71C698.982 375.712 699.992 370.725 702.012 366.747C704.062 362.739 706.908 359.74 710.549 357.751C714.19 355.731 718.428 354.722 723.263 354.722ZM723.354 364.682C720.631 364.682 718.367 365.554 716.562 367.298C714.787 369.042 713.762 371.781 713.486 375.514H733.131C733.1 373.433 732.718 371.582 731.983 369.96C731.28 368.338 730.209 367.053 728.771 366.104C727.363 365.156 725.558 364.682 723.354 364.682Z"
		fill="white"
		class="fill-inherit"
	/>
	<path
		d="M778.479 407.918C773.399 407.918 769.069 407 765.489 405.164C761.909 403.297 759.186 400.421 757.319 396.535C755.453 392.649 754.52 387.677 754.52 381.618C754.52 375.345 755.575 370.235 757.687 366.288C759.828 362.31 762.781 359.388 766.545 357.521C770.339 355.655 774.73 354.722 779.718 354.722C783.267 354.722 786.327 355.074 788.897 355.777C791.498 356.45 793.763 357.261 795.69 358.21L791.56 369.042C789.356 368.155 787.306 367.435 785.409 366.885C783.512 366.303 781.615 366.013 779.718 366.013C777.27 366.013 775.235 366.594 773.613 367.757C771.992 368.889 770.783 370.602 769.987 372.897C769.192 375.192 768.794 378.069 768.794 381.526C768.794 384.923 769.222 387.738 770.079 389.972C770.936 392.205 772.175 393.873 773.797 394.975C775.419 396.046 777.392 396.581 779.718 396.581C782.625 396.581 785.21 396.199 787.475 395.434C789.739 394.638 791.942 393.536 794.084 392.129V404.108C791.942 405.455 789.693 406.419 787.337 407C785.011 407.612 782.059 407.918 778.479 407.918Z"
		fill="white"
		class="fill-inherit"
	/>
	<path
		d="M827.636 396.765C829.166 396.765 830.65 396.612 832.088 396.306C833.557 396 835.01 395.617 836.448 395.158V405.577C834.949 406.25 833.082 406.801 830.849 407.229C828.646 407.688 826.228 407.918 823.597 407.918C820.537 407.918 817.783 407.428 815.335 406.449C812.918 405.439 811.005 403.711 809.598 401.263C808.221 398.784 807.532 395.342 807.532 390.935V366.196H800.831V360.275L808.542 355.594L812.581 344.762H821.531V355.685H835.897V366.196H821.531V390.935C821.531 392.894 822.082 394.363 823.184 395.342C824.316 396.29 825.8 396.765 827.636 396.765Z"
		fill="white"
		class="fill-inherit"
	/>
	<path
		d="M860.866 355.685V407H846.867V355.685H860.866ZM853.89 335.582C855.97 335.582 857.76 336.072 859.26 337.051C860.759 337.999 861.509 339.789 861.509 342.421C861.509 345.022 860.759 346.827 859.26 347.837C857.76 348.816 855.97 349.306 853.89 349.306C851.778 349.306 849.973 348.816 848.474 347.837C847.005 346.827 846.271 345.022 846.271 342.421C846.271 339.789 847.005 337.999 848.474 337.051C849.973 336.072 851.778 335.582 853.89 335.582Z"
		fill="white"
		class="fill-inherit"
	/>
	<path
		d="M922.232 381.251C922.232 385.535 921.651 389.329 920.488 392.634C919.356 395.938 917.688 398.738 915.485 401.033C913.313 403.297 910.681 405.011 907.591 406.174C904.531 407.337 901.073 407.918 897.218 407.918C893.607 407.918 890.287 407.337 887.258 406.174C884.259 405.011 881.643 403.297 879.409 401.033C877.206 398.738 875.493 395.938 874.269 392.634C873.075 389.329 872.479 385.535 872.479 381.251C872.479 375.56 873.488 370.74 875.508 366.793C877.527 362.846 880.404 359.847 884.137 357.797C887.87 355.747 892.322 354.722 897.493 354.722C902.297 354.722 906.55 355.747 910.253 357.797C913.986 359.847 916.908 362.846 919.02 366.793C921.161 370.74 922.232 375.56 922.232 381.251ZM886.753 381.251C886.753 384.617 887.12 387.447 887.854 389.742C888.589 392.037 889.736 393.766 891.297 394.929C892.857 396.091 894.892 396.673 897.401 396.673C899.88 396.673 901.884 396.091 903.414 394.929C904.975 393.766 906.107 392.037 906.811 389.742C907.545 387.447 907.912 384.617 907.912 381.251C907.912 377.854 907.545 375.039 906.811 372.806C906.107 370.541 904.975 368.843 903.414 367.711C901.854 366.579 899.819 366.013 897.31 366.013C893.607 366.013 890.914 367.283 889.231 369.822C887.579 372.362 886.753 376.171 886.753 381.251Z"
		fill="white"
		class="fill-inherit"
	/>
	<path
		d="M962.944 354.722C968.422 354.722 972.828 356.221 976.163 359.22C979.498 362.188 981.166 366.961 981.166 373.54V407H967.167V377.028C967.167 373.356 966.494 370.587 965.147 368.721C963.832 366.854 961.751 365.921 958.905 365.921C954.621 365.921 951.699 367.374 950.139 370.281C948.578 373.188 947.798 377.38 947.798 382.857V407H933.799V355.685H944.493L946.375 362.249H947.155C948.257 360.474 949.618 359.036 951.24 357.935C952.893 356.833 954.713 356.022 956.702 355.502C958.722 354.982 960.802 354.722 962.944 354.722Z"
		fill="white"
		class="fill-inherit"
	/>

	<path
		d="M76.3677 142.689C76.3677 142.689 0 236.834 0 284.956C0 333.084 34.5167 372.834 76.3677 372.834C118.219 372.834 152.74 333.084 152.74 284.956C152.74 236.834 76.3677 142.689 76.3677 142.689ZM93.9443 357.353C93.9443 357.353 122.302 328.996 138.008 287.992C138.008 287.992 142.904 331.243 93.9443 357.353Z"
		fill="white"
		class="fill-inherit"
	/>
	<path
		d="M315.845 99.7899C286.533 54.4041 257.265 16.1566 245.142 0.704834C233.02 16.1566 203.737 54.3992 174.425 99.7899C156.828 126.84 139.404 156.598 125.675 185.235C146.375 217.005 167.702 256.609 167.702 284.961C167.702 321.554 150.596 353.652 124.965 371.89C130.086 380.389 135.805 388.374 142.131 395.655C168.902 426.431 205.357 445.295 245.128 445.295C284.873 445.295 321.329 426.431 348.1 395.655C374.857 364.888 391.65 322.298 391.635 275.571C391.973 230.66 354.186 158.767 315.845 99.7899ZM292.026 411.733C292.026 411.733 339.493 364.266 365.784 295.63C365.784 295.63 373.98 368.027 292.026 411.733Z"
		fill="white"
		class="fill-inherit"
	/>
	<path
		d="M382.969 189.21L384.619 192.824C385.657 195.174 386.661 197.514 387.65 199.854C394.318 192.52 412.815 170.576 424.022 141.318C424.022 141.318 428.12 177.705 388.086 200.863C389.275 203.702 390.426 206.527 391.513 209.338C418.901 198.909 438.71 169.587 438.71 135.07C438.71 94.0811 378.01 18.7759 375.41 15.5935L369.593 8.42578L363.782 15.5935C362.171 17.5666 338.259 47.2608 320.306 79.305C323.003 83.3638 325.711 87.4716 328.413 91.6674C348.262 122.581 368.169 156.471 382.969 189.21Z"
		fill="white"
		class="fill-inherit"
	/>
</svg>
